#N canvas -1874 64 1028 932 10;
#X floatatom 56 31 5 0 0 0 - - -;
#X obj 48 78 phasor~ 1;
#X obj 72 147 *~;
#X obj 141 114 osc~ 1;
#X floatatom 151 60 5 0 0 0 - - -;
#X obj 73 199 *~ 0.8;
#X obj 69 259 dac~;
#X floatatom 140 149 5 0 0 0 - - -;
#X obj 124 175 / 100;
#X connect 0 0 1 0;
#X connect 1 0 2 0;
#X connect 2 0 5 0;
#X connect 3 0 2 1;
#X connect 4 0 3 0;
#X connect 5 0 6 0;
#X connect 5 0 6 1;
#X connect 7 0 8 0;
#X connect 8 0 5 1;
