#N canvas -1620 231 450 300 10;
#X obj 124 127 f;
#X obj 121 165 + 1;
#X msg 155 98 0;
#X obj 121 200 mod 16;
#X floatatom 119 239 5 0 0 0 - - -;
#X obj 62 38 tgl 15 0 empty empty empty 17 7 0 10 -262144 -1 -1 1 1
;
#X obj 58 83 metro 300;
#X connect 0 0 1 0;
#X connect 1 0 0 1;
#X connect 1 0 3 0;
#X connect 2 0 0 1;
#X connect 3 0 4 0;
#X connect 5 0 6 0;
#X connect 6 0 0 0;
