#N canvas -1842 44 1065 929 12;
#X obj 45 55 bng 15 250 50 0 empty empty empty 17 7 0 10 -262144 -1
-1;
#X obj 62 102 f;
#X floatatom 92 68 5 0 0 0 - - -;
#X obj 57 151 + 1;
#X floatatom 58 187 5 0 0 0 - - -;
#X obj 56 236 mtof;
#X obj 54 280 osc~;
#X obj 56 324 dac~;
#X obj 96 20 loadbang;
#X connect 0 0 1 0;
#X connect 1 0 3 0;
#X connect 2 0 1 1;
#X connect 3 0 1 1;
#X connect 3 0 4 0;
#X connect 4 0 5 0;
#X connect 5 0 6 0;
#X connect 6 0 7 0;
#X connect 6 0 7 1;
#X connect 8 0 2 0;
