#N canvas -1638 223 450 300 12;
#X floatatom 61 77 5 0 0 0 - - -;
#X msg 61 131 set \$1;
#X msg 60 176 24;
#X obj 141 11 vsl 15 128 0 127 0 0 empty empty empty 0 -9 0 10 -262144
-1 -1 2400 1;
#X obj 203 57 openpanel;
#X obj 192 101 print;
#X symbolatom 269 101 10 0 0 0 - - -;
#X obj 215 9 bng 15 250 50 0 empty empty empty 17 7 0 10 -262144 -1
-1;
#X connect 0 0 1 0;
#X connect 1 0 2 0;
#X connect 3 0 0 0;
#X connect 4 0 6 0;
#X connect 4 0 5 0;
#X connect 7 0 4 0;
