#N canvas -1841 28 985 983 12;
#X obj 45 49 osc~ 440;
#X obj 50 253 *~;
#X obj 162 23 hsl 128 15 0 127 0 0 empty empty empty -2 -8 0 10 -262144
-1 -1 4700 1;
#X floatatom 159 95 5 0 0 0 - - -;
#X msg 169 163 \$1 20;
#X obj 171 202 line~;
#X obj 50 304 dac~;
#X obj 161 59 / 127;
#X connect 0 0 1 0;
#X connect 1 0 6 0;
#X connect 1 0 6 1;
#X connect 2 0 7 0;
#X connect 3 0 4 0;
#X connect 4 0 5 0;
#X connect 5 0 1 1;
#X connect 7 0 3 0;
